<?xml version="1.0" encoding="UTF-8"?>
<svg width="48px" height="56px" viewBox="0 0 48 56" version="1.1" xmlns="http://www.w3.org/2000/svg" xmlns:xlink="http://www.w3.org/1999/xlink">
    <!-- Generator: Sketch 41 (35326) - http://www.bohemiancoding.com/sketch -->
    <title>Page 1</title>
    <desc>Created with Sketch.</desc>
    <defs></defs>
    <g id="Page-1" stroke="none" stroke-width="1" fill="none" fill-rule="evenodd">
        <g id="homepage" transform="translate(-403.000000, -1171.000000)">
            <g id="Page-1" transform="translate(403.000000, 1171.000000)">
                <path d="M24,0 C16.268,0 10,6.268 10,14 L10,33 L38,33 L38,14 C38,6.268 31.732,0 24,0 M24,6 C28.411,6 32,9.589 32,14 L32,27 L16,27 L16,14 C16,9.589 19.589,6 24,6" id="Fill-1" fill="#60D8B5"></path>
                <path d="M42,19 L6,19 C2.686,19 0,21.686 0,25 L0,50 C0,53.314 2.686,56 6,56 L42,56 C45.314,56 48,53.314 48,50 L48,25 C48,21.686 45.314,19 42,19" id="Fill-3" fill="#9BECDD"></path>
                <path d="M41.9999,30.0899 C39.6359,30.0999 37.7999,28.2649 37.7999,25.9999 L10.9999,25.9999 C10.9999,28.2649 8.9999,30.0999 6.9999,30.0999 L6.9999,44.9099 C9.2169,44.9639 10.9999,46.7699 10.9999,48.9999 L37.7999,48.9999 C37.7999,46.7359 39.6359,44.8999 41.8999,44.8999 C41.9339,44.8999 41.9999,30.0899 41.9999,30.0899 Z" id="Fill-5" fill="#60D8B5"></path>
                <path d="M28,35 C28,36.933 26.433,38.5 24.5,38.5 C22.567,38.5 21,36.933 21,35 C21,33.067 22.567,31.5 24.5,31.5 C26.433,31.5 28,33.067 28,35" id="Fill-7" fill="#FFFFFF"></path>
                <path d="M24.5,43.5 L24.5,43.5 C23.672,43.5 23,42.828 23,42 L23,37 C23,36.172 23.672,35.5 24.5,35.5 L24.5,35.5 C25.328,35.5 26,36.172 26,37 L26,42 C26,42.828 25.328,43.5 24.5,43.5" id="Fill-9" fill="#FFFFFF"></path>
            </g>
        </g>
    </g>
</svg>