<?xml version="1.0" encoding="UTF-8"?>
<svg width="20px" height="16px" viewBox="0 0 20 16" version="1.1" xmlns="http://www.w3.org/2000/svg" xmlns:xlink="http://www.w3.org/1999/xlink">
    <!-- Generator: Sketch 41.2 (35397) - http://www.bohemiancoding.com/sketch -->
    <title>Shape</title>
    <desc>Created with Sketch.</desc>
    <defs></defs>
    <g id="Page-1" stroke="none" stroke-width="1" fill="none" fill-rule="evenodd">
        <g id="Enterprise" transform="translate(-557.000000, -486.000000)" fill="#FFFFFF">
            <g id="Group-12" transform="translate(557.000000, 486.000000)">
                <path d="M1.68410956,11.0201667 L1.67490839,2.00585938 L17.6573882,2.0024027 L17.6664497,11.0167101 L1.68410956,11.0201667 Z M19.6172309,12.7271076 L19.6172309,12.7271076 L19.6172309,0.363903155 C19.6172309,0.162945883 19.4482759,0 19.2403312,0 L0.377318939,0 C0.168955036,0.000139747755 0,0.162945883 0,0.363903155 L0,12.7272473 C0,12.9282046 0.168955036,13.0911505 0.377318939,13.0911505 L7.54512106,13.0911505 L7.54512106,15.2724732 L4.52712853,15.2724732 C4.31876463,15.2724732 4.14980959,15.4352793 4.14980959,15.6363763 C4.14980959,15.8371939 4.31876463,16 4.52712853,16 L4.52726828,16 L15.0901024,16 C15.2983265,16 15.4672816,15.8371939 15.4672816,15.6363763 C15.4672816,15.4354191 15.2983265,15.2724732 15.0901024,15.2724732 L12.0722496,15.2724732 L12.0722496,13.0907312 L19.2400517,13.0907312 C19.4482759,13.0907312 19.6172309,12.9282046 19.6172309,12.7271076 L19.6172309,12.7271076 Z" id="Shape"></path>
            </g>
        </g>
    </g>
</svg>