<?xml version="1.0" encoding="UTF-8"?>
<svg width="35px" height="34px" viewBox="0 0 35 34" version="1.1" xmlns="http://www.w3.org/2000/svg" xmlns:xlink="http://www.w3.org/1999/xlink">
    <!-- Generator: Sketch 41.2 (35397) - http://www.bohemiancoding.com/sketch -->
    <title>Group 3</title>
    <desc>Created with Sketch.</desc>
    <defs></defs>
    <g id="Page-1" stroke="none" stroke-width="1" fill="none" fill-rule="evenodd">
        <g id="homepage-logo_v8" transform="translate(-1193.000000, -353.000000)">
            <g id="Group-15" transform="translate(1139.000000, 155.000000)">
                <g id="Group-3" transform="translate(54.000000, 198.000000)">
                    <path d="M17.8659668,34 C27.2548075,34 34.8659668,26.3888407 34.8659668,17 C34.8659668,7.61115925 27.2548075,0 17.8659668,0 C8.47712605,0 0.865966797,7.61115925 0.865966797,17 C0.865966797,26.3888407 8.47712605,34 17.8659668,34 Z M17.8659668,32 C9.58169555,32 2.8659668,25.2842712 2.8659668,17 C2.8659668,8.71572875 9.58169555,2 17.8659668,2 C26.150238,2 32.8659668,8.71572875 32.8659668,17 C32.8659668,25.2842712 26.150238,32 17.8659668,32 Z" id="Oval" fill="#4FBFF5"></path>
                    <path d="M21,14 L21,11.5 C21,10.1225183 19.8776831,9 18.4973148,9 L17.5026852,9 C16.1247528,9 15,10.1227509 15,11.5 L15,14 L21,14 Z M13,11.5 C13,9.01471863 15.0236492,7 17.5026852,7 L18.4973148,7 C20.9840792,7 23,9.01977567 23,11.5 L23,16 L13,16 L13,11.5 Z" id="Rectangle-2" fill="#4FBFF5"></path>
                    <rect id="Rectangle-4" fill="#45B7F4" x="10" y="14" width="16" height="11" rx="2"></rect>
                    <path d="M19,19.7324356 C19.5978014,19.3866262 20,18.7402824 20,18 C20,16.8954305 19.1045695,16 18,16 C16.8954305,16 16,16.8954305 16,18 C16,18.7402824 16.4021986,19.3866262 17,19.7324356 L17,21.9906311 C17,22.5566468 17.4477153,23 18,23 C18.5561352,23 19,22.5480902 19,21.9906311 L19,19.7324356 Z" id="Combined-Shape" fill="#FFFDFD"></path>
                </g>
            </g>
        </g>
    </g>
</svg>