<?xml version="1.0" encoding="UTF-8"?>
<svg width="34px" height="34px" viewBox="0 0 34 34" version="1.1" xmlns="http://www.w3.org/2000/svg" xmlns:xlink="http://www.w3.org/1999/xlink">
    <!-- Generator: Sketch 41 (35326) - http://www.bohemiancoding.com/sketch -->
    <title>Group 13</title>
    <desc>Created with Sketch.</desc>
    <defs></defs>
    <g id="Page-1" stroke="none" stroke-width="1" fill="none" fill-rule="evenodd">
        <g id="create-new-990" transform="translate(-392.000000, -550.000000)">
            <g id="Group-9" transform="translate(355.000000, 114.000000)">
                <g id="Group-19" transform="translate(38.000000, 354.000000)">
                    <g id="Group-14" transform="translate(0.000000, 83.000000)">
                        <g id="Group-13">
                            <ellipse id="Oval" stroke="#CE9EE7" stroke-width="2" cx="16" cy="16" rx="16" ry="16"></ellipse>
                            <path d="M15.2,9.4 L14.12,9.4 C13.856,9.4 13.64,9.616 13.64,9.88 L13.64,14.44 L9.3968,14.44 C9.19856,14.44 8.9528,14.48512 8.7164,14.55832 C8.47976,14.6308 8.25224,14.73136 8.09144,14.842 L5.24144,16.798 C5.0804,16.9084 5,17.05432 5,17.2 C5,17.34568 5.0804,17.49088 5.24144,17.60176 L8.09144,19.558 C8.25248,19.6684 8.47976,19.76896 8.7164,19.84192 C8.95304,19.91488 9.1988,19.96 9.3968,19.96 L13.64,19.96 L13.64,30.52 C13.64,30.784 13.856,31 14.12,31 L15.2,31 C15.464,31 15.68,30.784 15.68,30.52 L15.68,9.88 C15.68,9.616 15.464,9.4 15.2,9.4 L15.2,9.4 Z M28.75832,14.39848 L25.90832,12.442 C25.74728,12.33136 25.52,12.23104 25.28336,12.15784 C25.04672,12.08512 24.80096,12.04 24.60296,12.04 L16.4,12.04 L17.36072,17.56 L24.60296,17.56 C24.80096,17.56 25.04696,17.51488 25.28336,17.44192 C25.52,17.3692 25.74752,17.26864 25.90832,17.15824 L28.75832,15.20176 C28.91936,15.09112 29,14.94592 29,14.8 C29,14.65432 28.91936,14.50888 28.75832,14.39848 L28.75832,14.39848 Z" id="Shape" fill="#C894E5"></path>
                        </g>
                    </g>
                </g>
            </g>
        </g>
    </g>
</svg>