<?xml version="1.0" encoding="UTF-8"?>
<svg width="107px" height="114px" viewBox="0 0 107 114" version="1.1" xmlns="http://www.w3.org/2000/svg" xmlns:xlink="http://www.w3.org/1999/xlink">
    <!-- Generator: Sketch 41 (35326) - http://www.bohemiancoding.com/sketch -->
    <title>Group 32</title>
    <desc>Created with Sketch.</desc>
    <defs></defs>
    <g id="Page-1" stroke="none" stroke-width="1" fill="none" fill-rule="evenodd">
        <g id="homepage" transform="translate(-455.000000, -3826.000000)">
            <g id="Group-32" transform="translate(455.000000, 3825.000000)">
                <rect id="Rectangle-21" fill="#9899E4" x="0" y="31" width="107" height="64" rx="4"></rect>
                <g id="Page-1" transform="translate(10.000000, 0.000000)">
                    <g id="Group-3" transform="translate(0.000000, 0.275000)" fill="#DEE7F0">
                        <path d="M97,88.6109873 L80.6341,79.1491 C79.8351,78.6871 78.8191,78.8291 78.1901,79.5061 C75.0121,82.9261 70.7461,85.3201 65.9411,86.1371 C64.9801,86.3011 64.2751,87.1271 64.2751,88.1021 L64.2751,95.2251 L60.2751,95.2251 L60.2751,88.1011 C60.2751,87.1311 59.5781,86.3011 58.6221,86.1401 C54.1451,85.3811 50.1361,83.2531 47.0371,80.2011 C46.3441,79.5191 45.2641,79.4341 44.4751,80.0021 L31.9901,88.9901 C30.1921,90.2841 29.4261,92.5581 30.0111,94.6951 C30.4791,96.4071 30.6571,98.2391 30.4861,100.1361 C29.8511,107.1901 24.2631,113.0031 17.2351,113.8781 C7.2551,115.1191 -1.1309,106.7241 0.1251,96.7421 C0.9221,90.4101 7.0701,84.3161 13.4071,83.5611 C17.1571,83.1151 20.6711,84.0341 23.5301,85.8821 C25.3891,87.0821 27.7701,87.0991 29.5661,85.8071 L42.1331,76.7601 C42.9241,76.1901 43.1841,75.1371 42.7551,74.2621 C41.3441,71.3831 40.5501,68.1471 40.5501,64.7251 C40.5501,60.8091 41.5871,57.1351 43.4001,53.9631 C43.8861,53.1131 43.7001,52.0411 42.9441,51.4201 L30.7271,41.3751 C29.0571,40.0021 26.7321,39.8941 24.8591,40.9741 C22.2871,42.4551 19.2471,43.2111 16.0081,42.9481 C8.9041,42.3721 3.0161,36.7811 2.1251,29.7101 C0.8711,19.7501 9.2161,11.3691 19.1661,12.5641 C25.4911,13.3231 31.6141,19.4231 32.4231,25.7421 C32.7291,28.1331 32.4711,30.4241 31.7741,32.5151 C31.0681,34.6301 31.6531,36.9581 33.3751,38.3741 L45.4891,48.3341 C46.2391,48.9511 47.3221,48.9381 48.0551,48.3031 C51.8661,45.0001 56.8361,43.0001 62.2751,43.0001 C64.0561,43.0001 65.7851,43.2171 67.4411,43.6231 C68.3871,43.8541 69.3591,43.3761 69.7471,42.4831 L77.6491,24.2731 C78.4271,22.4821 78.1971,20.3671 76.9251,18.8851 C75.0011,16.6441 73.9641,13.6211 74.3581,10.3581 C74.9571,5.3851 79.0101,1.3631 83.9881,0.7981 C90.8811,0.0161 96.6851,5.6121 96.2521,12.4411 C95.9991,16.4401 93.4251,19.9551 89.8061,21.6741 C88.4331,22.3261 87.1051,22.6401 85.8331,22.7101 C83.8041,22.8211 82.0511,24.1781 81.2421,26.0421 L73.4161,44.0751 C73.0291,44.9671 73.3431,46.0041 74.1561,46.5371 C80.0831,50.4161 84.0001,57.1121 84.0001,64.7251 C84.0001,67.8031 83.3581,70.7311 82.2041,73.3831 C81.7971,74.3171 82.1461,75.4031 83.0281,75.9131 L97,83.9906387 L97,88.6109873 Z" id="Combined-Shape"></path>
                    </g>
                    <path d="M79.9,65.0001 C79.9,74.5271 72.177,82.2501 62.65,82.2501 C53.123,82.2501 45.4,74.5271 45.4,65.0001 C45.4,55.4731 53.123,47.7501 62.65,47.7501 C72.177,47.7501 79.9,55.4731 79.9,65.0001" id="Fill-4" fill="#9899E4" opacity="0.35"></path>
                    <path d="M74.743,65.0001 C74.743,71.6791 69.329,77.0931 62.65,77.0931 C55.971,77.0931 50.557,71.6791 50.557,65.0001 C50.557,58.3211 55.971,52.9071 62.65,52.9071 C69.329,52.9071 74.743,58.3211 74.743,65.0001" id="Fill-6" fill="#9899E4" opacity="0.2"></path>
                    <path d="M68.5061,65.0001 C68.5061,68.2341 65.8841,70.8561 62.6501,70.8561 C59.4161,70.8561 56.7941,68.2341 56.7941,65.0001 C56.7941,61.7661 59.4161,59.1441 62.6501,59.1441 C65.8841,59.1441 68.5061,61.7661 68.5061,65.0001" id="Fill-8" fill="#9899E4" opacity="0.2"></path>
                </g>
            </g>
        </g>
    </g>
</svg>