<?xml version="1.0" encoding="UTF-8"?>
<svg width="35px" height="40px" viewBox="0 0 35 40" version="1.1" xmlns="http://www.w3.org/2000/svg" xmlns:xlink="http://www.w3.org/1999/xlink">
    <!-- Generator: Sketch 41 (35326) - http://www.bohemiancoding.com/sketch -->
    <title>Group 12</title>
    <desc>Created with Sketch.</desc>
    <defs></defs>
    <g id="Page-1" stroke="none" stroke-width="1" fill="none" fill-rule="evenodd">
        <g id="groups-newgroup" transform="translate(-1065.000000, -450.000000)">
            <g id="Group-12" transform="translate(1065.000000, 450.000000)">
                <g id="Group-11" opacity="0.25" transform="translate(2.833333, 0.000000)" fill="#7294BA">
                    <path d="M22.9087312,1.87396774 L21.4803441,0.215451613 L4.4164086,0.215451613 C2.12569892,0.215451613 0.272763441,2.07103226 0.272763441,4.36306452 L0.272763441,9.63354839 L0.284666667,32.6067742 L0.284666667,35.1249677 C0.284666667,37.6537419 1.98021505,39.7116774 4.06195699,39.7116774 L27.6448925,39.7063871 C29.9356022,39.7063871 31.793828,37.8415484 31.793828,35.5548065 L31.793828,12.1808387 L30.1313441,10.249871 L22.9087312,1.87396774 Z" id="Shape"></path>
                </g>
                <g id="Group-15" transform="translate(0.000000, 15.000000)">
                    <polyline id="Shape" fill="#247FDE" points="19.0976562 18.8923226 0 18.8923226 0 0.653083456 19.0976562 0.653083456 19.0976562 18.8923226"></polyline>
                    <polyline id="Shape" fill="#FFFFFF" points="14.854677 14.5860717 11.6391541 14.5860717 9.44447709 11.4848155 7.1402551 14.5860717 3.90962255 14.5860717 7.91745785 9.54700259 4.68115918 5.13781715 7.94389974 5.13781715 9.45864239 7.53458576 11.0734865 5.13781715 14.3938326 5.13781715 11.0007713 9.54700259 14.854677 14.5860717"></polyline>
                </g>
            </g>
        </g>
    </g>
</svg>