<?xml version="1.0" encoding="UTF-8"?>
<svg width="72px" height="85px" viewBox="0 0 72 85" version="1.1" xmlns="http://www.w3.org/2000/svg" xmlns:xlink="http://www.w3.org/1999/xlink">
    <!-- Generator: Sketch 41 (35326) - http://www.bohemiancoding.com/sketch -->
    <title>Page 1</title>
    <desc>Created with Sketch.</desc>
    <defs>
        <path d="M0.85706383,24.7247838 C9.57835926,35.7754704 23.0917899,42.8684043 38.2612766,42.8684043 C53.4317707,42.8684043 66.9453577,35.7751594 75.6664255,24.7240571 L75.6664255,0.433329787 L0.85706383,0.433329787 L0.85706383,24.7247838 L0.85706383,24.7247838 Z" id="path-1"></path>
        <linearGradient x1="50%" y1="0%" x2="50%" y2="100%" id="linearGradient-3">
            <stop stop-color="#A3D9F7" offset="0%"></stop>
            <stop stop-color="#73BCF9" offset="100%"></stop>
        </linearGradient>
    </defs>
    <g id="Page-1" stroke="none" stroke-width="1" fill="none" fill-rule="evenodd">
        <g id="tour-1" transform="translate(-1271.000000, -353.000000)">
            <g id="Group-4" transform="translate(1168.000000, 275.000000)">
                <g id="Group-2" transform="translate(83.000000, 60.000000)">
                    <g id="Page-1" transform="translate(17.553191, 18.723404)">
                        <g id="Group-7" transform="translate(0.000000, 40.676596)">
                            <mask id="mask-2" fill="white">
                                <use xlink:href="#path-1"></use>
                            </mask>
                            <g id="Clip-6"></g>
                            <path d="M67.4831277,21.8786489 L50.4670638,16.637266 C49.4068511,16.3107766 48.6836596,15.3313085 48.6836596,14.2219468 L48.6836596,0.433329787 L27.8398298,0.433329787 L27.8398298,14.2219468 C27.8398298,15.3313085 27.1166383,16.3107766 26.0564255,16.637266 L9.0403617,21.8786489 C4.17578723,23.3765213 0.85706383,27.8713085 0.85706383,32.961734 L0.85706383,48.158117 C0.85706383,48.158117 14.1471702,56.1705638 38.2617447,56.1705638 C62.3763191,56.1705638 75.6664255,48.158117 75.6664255,48.158117 L75.6664255,32.961734 C75.6664255,27.8713085 72.3477021,23.3765213 67.4831277,21.8786489" id="Fill-5" fill="#73BCF9" mask="url(#mask-2)"></path>
                        </g>
                        <path d="M27.8402979,54.8940957 C29.7500851,57.1245213 31.6540213,58.8166489 33.1039149,59.9634574 C34.5912553,61.1406915 36.4004043,61.7784574 38.2622128,61.7784574 C40.1228511,61.7784574 41.932,61.1406915 43.4193404,59.9634574 C44.869234,58.8166489 46.7731702,57.1245213 48.6829574,54.8940957 L48.6829574,46.6944149 L27.8402979,46.6944149 L27.8402979,54.8940957 Z" id="Fill-8" fill="#63A9ED"></path>
                        <path d="M20.9014179,36.3269614 C18.1954608,33.542463 14.8158722,25.3833241 20.7401489,24.2701346 L20.7401489,18.8907447 C20.7401489,4.96053191 34.3520638,0.454042553 46.0811064,0.454042553 L46.0811064,3.76925532 C46.0811064,3.76925532 55.7833404,5.02489362 55.7833404,18.8907447 L55.7833404,24.2701566 C61.7073565,25.3834129 58.3280068,33.5422084 55.6220903,36.3268217 C55.4392722,37.6878403 55.101001,39.0231693 54.6072766,40.3009574 C51.7344043,47.7376596 46.5328085,52.7040426 43.4188723,55.1685106 C41.9315319,56.3457447 40.122383,56.9823404 38.2617447,56.9823404 C36.3999362,56.9823404 34.5919574,56.3457447 33.104617,55.1685106 C29.9906809,52.7040426 24.7879149,47.7376596 21.9162128,40.3009574 C21.4225053,39.023213 21.0842403,37.6879317 20.9014179,36.3269614 Z" id="Combined-Shape" fill="#73BCF9"></path>
                        <path d="M20.9971506,35.8729189 C18.2911935,33.0884204 14.9116049,24.9292815 20.8358816,23.816092 L20.8358816,18.4367021 C20.8358816,4.50648936 34.4477965,0 46.1768391,0 L46.1768391,3.31521277 C46.1768391,3.31521277 55.8790731,4.57085106 55.8790731,18.4367021 L55.8790731,23.816114 C61.8030892,24.9293704 58.4237395,33.0881658 55.717823,35.8727791 C55.5350049,37.2337978 55.1967337,38.5691268 54.7030093,39.8469149 C51.830137,47.283617 46.6285412,52.25 43.514605,54.7144681 C42.0272646,55.8917021 40.2181157,56.5282979 38.3574774,56.5282979 C36.4956689,56.5282979 34.6876901,55.8917021 33.2003497,54.7144681 C30.0864136,52.25 24.8836476,47.283617 22.0119455,39.8469149 C21.518238,38.5691705 21.179973,37.2338892 20.9971506,35.8729189 Z" id="Combined-Shape" fill="url(#linearGradient-3)"></path>
                    </g>
                </g>
            </g>
        </g>
    </g>
</svg>