<?xml version="1.0" encoding="UTF-8"?>
<svg width="65px" height="56px" viewBox="0 0 65 56" version="1.1" xmlns="http://www.w3.org/2000/svg" xmlns:xlink="http://www.w3.org/1999/xlink">
    <!-- Generator: Sketch 41 (35326) - http://www.bohemiancoding.com/sketch -->
    <title>Page 1</title>
    <desc>Created with Sketch.</desc>
    <defs>
        <polygon id="path-1" points="0 56 64.191 56 64.191 0 0 0"></polygon>
    </defs>
    <g id="Page-1" stroke="none" stroke-width="1" fill="none" fill-rule="evenodd">
        <g id="homepage" transform="translate(-926.000000, -1171.000000)">
            <g id="Page-1" transform="translate(926.000000, 1171.000000)">
                <path d="M56,56 L8,56 L8,4 C8,1.791 9.791,0 12,0 L52,0 C54.209,0 56,1.791 56,4 L56,56 L56,56 Z" id="Fill-1" fill="#4FBDF4"></path>
                <mask id="mask-2" fill="white">
                    <use xlink:href="#path-1"></use>
                </mask>
                <g id="Clip-4"></g>
                <path d="M0,56 C0,54.842 0.844,53.859 1.988,53.682 C6.999,52.911 20.561,51 32,51 C43.439,51 57.001,52.911 62.012,53.682 C63.156,53.859 64,54.842 64,56 L64,56 L0,56 L0,56 Z" id="Fill-3" fill="#4FBDF4" mask="url(#mask-2)"></path>
                <path d="M22,11 C22,13.209 20.209,15 18,15 C15.791,15 14,13.209 14,11 C14,8.791 15.791,7 18,7 C20.209,7 22,8.791 22,11" id="Fill-5" fill="#FFFFFF" mask="url(#mask-2)"></path>
                <path d="M22,41 C22,43.209 20.209,45 18,45 C15.791,45 14,43.209 14,41 C14,38.791 15.791,37 18,37 C20.209,37 22,38.791 22,41" id="Fill-6" fill="#FFFFFF" mask="url(#mask-2)"></path>
                <path d="M22,26 C22,28.209 20.209,30 18,30 C15.791,30 14,28.209 14,26 C14,23.791 15.791,22 18,22 C20.209,22 22,23.791 22,26" id="Fill-7" fill="#FFFFFF" mask="url(#mask-2)"></path>
                <path d="M47,10 L28,10 C27.448,10 27,9.552 27,9 C27,8.448 27.448,8 28,8 L47,8 C47.552,8 48,8.448 48,9 C48,9.552 47.552,10 47,10" id="Fill-8" fill="#FFFFFF" mask="url(#mask-2)"></path>
                <path d="M47,15 L28,15 C27.448,15 27,14.552 27,14 C27,13.448 27.448,13 28,13 L47,13 C47.552,13 48,13.448 48,14 C48,14.552 47.552,15 47,15" id="Fill-9" fill="#FFFFFF" mask="url(#mask-2)"></path>
                <path d="M48,24 C48,24.552 47.552,25 47,25 L28,25 C27.448,25 27,24.552 27,24 L27,24 C27,23.448 27.448,23 28,23 L47,23 C47.552,23 48,23.448 48,24 L48,24 Z" id="Fill-10" fill="#FFFFFF" mask="url(#mask-2)"></path>
                <path d="M48,29 C48,29.552 47.552,30 47,30 L28,30 C27.448,30 27,29.552 27,29 L27,29 C27,28.448 27.448,28 28,28 L47,28 C47.552,28 48,28.448 48,29 L48,29 Z" id="Fill-11" fill="#FFFFFF" mask="url(#mask-2)"></path>
                <path d="M48,39 C48,39.552 47.552,40 47,40 L28,40 C27.448,40 27,39.552 27,39 L27,39 C27,38.448 27.448,38 28,38 L47,38 C47.552,38 48,38.448 48,39 L48,39 Z" id="Fill-12" fill="#FFFFFF" mask="url(#mask-2)"></path>
                <path d="M48,44 C48,44.552 47.552,45 47,45 L28,45 C27.448,45 27,44.552 27,44 L27,44 C27,43.448 27.448,43 28,43 L47,43 C47.552,43 48,43.448 48,44 L48,44 Z" id="Fill-13" fill="#FFFFFF" mask="url(#mask-2)"></path>
                <g id="Group-12" mask="url(#mask-2)" fill="#1F91E5">
                    <g transform="translate(44.000000, 20.000000)">
                        <polygon id="Fill-14" points="21.0636105 12.1766538 5.78982105 0.000115384615 5.78982105 19.2797308 11.6024526 16.5762692 15.2266632 23.8466538 19.3302421 21.8147308 15.7558211 14.6447308"></polygon>
                        <polygon id="Fill-15" fill-opacity="0.4" points="11.5789474 15 0 5.76923077 0 25.0488462 5.81263158 22.3453846 9.438 29.6157692 11.5789474 28.5565385 11.5789474 23.6492308 9.966 20.4138462 11.5789474 19.6638462"></polygon>
                    </g>
                </g>
            </g>
        </g>
    </g>
</svg>