<?xml version="1.0" encoding="UTF-8"?>
<svg width="34px" height="34px" viewBox="0 0 34 34" version="1.1" xmlns="http://www.w3.org/2000/svg" xmlns:xlink="http://www.w3.org/1999/xlink">
    <!-- Generator: Sketch 41 (35326) - http://www.bohemiancoding.com/sketch -->
    <title>Group 10</title>
    <desc>Created with Sketch.</desc>
    <defs></defs>
    <g id="Page-1" stroke="none" stroke-width="1" fill="none" fill-rule="evenodd">
        <g id="nextstep-Filing-Officer" transform="translate(-767.000000, -572.000000)">
            <g id="Group-7" transform="translate(355.000000, 114.000000)">
                <g id="Group-6-Copy-3" transform="translate(413.000000, 459.000000)">
                    <g id="Group-10">
                        <circle id="Oval-Copy-2" stroke="#6EA2FC" stroke-width="2" cx="16" cy="16" r="16"></circle>
                        <path d="M16,18 C15.734,18 15.5,17.906 15,17.664 L8,14 L8,21 C8,21.55 8.45,22 9,22 L23,22 C23.55,22 24,21.55 24,21 L24,14 L17,17.664 C16.5,17.906 16.266,18 16,18 L16,18 Z M23,10 L9,10 C8.45,10 8,10.45 8,11 L8,11.758 L16,15.963 L24,11.758 L24,11 C24,10.45 23.55,10 23,10 L23,10 Z" id="Shape" fill="#6EA2FD"></path>
                    </g>
                </g>
            </g>
        </g>
    </g>
</svg>