<?xml version="1.0" encoding="UTF-8"?>
<svg width="15px" height="14px" viewBox="0 0 15 14" version="1.1" xmlns="http://www.w3.org/2000/svg" xmlns:xlink="http://www.w3.org/1999/xlink">
    <!-- Generator: Sketch 41 (35326) - http://www.bohemiancoding.com/sketch -->
    <title>edit-icon copy</title>
    <desc>Created with Sketch.</desc>
    <defs></defs>
    <g id="Page-1" stroke="none" stroke-width="1" fill="none" fill-rule="evenodd">
        <g id="groups" transform="translate(-864.000000, -420.000000)" fill="#627A8E">
            <g id="edit-icon-copy" transform="translate(864.000000, 420.000000)">
                <path d="M14.2146667,1.64383333 L12.9406667,0.371583333 C12.809125,0.240041667 12.6361667,0.174125 12.4635,0.174125 C12.2908333,0.174125 12.1181667,0.23975 11.986625,0.371291667 L10.9675417,1.38745833 L13.1955833,3.61170833 L14.2146667,2.59583333 C14.4780417,2.33275 14.4780417,1.90604167 14.2146667,1.64383333 L14.2146667,1.64383333 Z" id="Shape"></path>
                <polygon id="Shape" points="5.13644247 7.31941789 7.36477581 9.54395955 12.1392681 4.62732336 9.91093473 2.40278169"></polygon>
                <polygon id="Shape" points="3.87129167 8.4665 3.39558333 11.165 6.099625 10.69075"></polygon>
                <path d="M1.62954167,12.3675417 L1.62954167,3.96579167 L6.08630357,3.9651984 L7.54755357,2.50686507 L1.11416667,2.50745833 C0.595291667,2.50745833 0.170916667,2.93183333 0.170916667,3.45070833 L0.170916667,12.8829167 C0.170916667,13.4017917 0.595291667,13.8261667 1.11416667,13.8261667 L10.546375,13.8261667 C11.06525,13.8261667 11.489625,13.4017917 11.489625,12.8829167 L11.5557535,7.51569218 L10.0974202,8.97140051 L10.0312917,12.3675417 L1.62954167,12.3675417 Z" id="Shape"></path>
            </g>
        </g>
    </g>
</svg>