<?xml version="1.0" encoding="UTF-8"?>
<svg width="15px" height="15px" viewBox="0 0 15 15" version="1.1" xmlns="http://www.w3.org/2000/svg" xmlns:xlink="http://www.w3.org/1999/xlink">
    <!-- Generator: Sketch 41 (35326) - http://www.bohemiancoding.com/sketch -->
    <title>search</title>
    <desc>Created with Sketch.</desc>
    <defs></defs>
    <g id="Page-1" stroke="none" stroke-width="1" fill="none" fill-rule="evenodd">
        <g id="groups" transform="translate(-384.000000, -265.000000)" fill="#435364">
            <path d="M393.129835,275.658934 C392.184788,276.343198 391.028458,276.745674 389.779617,276.745674 C386.587623,276.745674 384,274.116316 384,270.872837 C384,267.629359 386.587623,265 389.779617,265 C392.971612,265 395.559235,267.629359 395.559235,270.872837 C395.559235,272.494576 394.912329,273.962786 393.866424,275.02556 L397.944363,279.169272 C398.131388,279.359313 398.126842,279.66403 397.939077,279.854823 C397.750004,280.046946 397.449253,280.048021 397.264408,279.860194 L393.129835,275.658934 L393.129835,275.658934 Z M389.779617,276.054752 C392.596083,276.054752 394.87928,273.73473 394.87928,270.872837 C394.87928,268.010944 392.596083,265.690922 389.779617,265.690922 C386.963152,265.690922 384.679955,268.010944 384.679955,270.872837 C384.679955,273.73473 386.963152,276.054752 389.779617,276.054752 L389.779617,276.054752 L389.779617,276.054752 Z" id="search"></path>
        </g>
    </g>
</svg>