<?xml version="1.0" encoding="UTF-8"?>
<svg width="34px" height="34px" viewBox="0 0 34 34" version="1.1" xmlns="http://www.w3.org/2000/svg" xmlns:xlink="http://www.w3.org/1999/xlink">
    <!-- Generator: Sketch 41 (35326) - http://www.bohemiancoding.com/sketch -->
    <title>Group 23</title>
    <desc>Created with Sketch.</desc>
    <defs>
        <polygon id="path-1" points="9.2684 17 18.5366667 17 18.5366667 0 9.2684 0 0.000133333333 0 0.000133333333 17"></polygon>
    </defs>
    <g id="Page-1" stroke="none" stroke-width="1" fill="none" fill-rule="evenodd">
        <g id="create-new-990" transform="translate(-392.000000, -627.000000)">
            <g id="Group-9" transform="translate(355.000000, 114.000000)">
                <g id="Group-23" transform="translate(38.000000, 514.000000)">
                    <ellipse id="Oval-Copy" stroke="#8CBDF9" stroke-width="2" cx="16" cy="16" rx="16" ry="16"></ellipse>
                    <g id="Group-6-Copy" transform="translate(6.000000, 8.000000)">
                        <mask id="mask-2" fill="white">
                            <use xlink:href="#path-1"></use>
                        </mask>
                        <g id="Clip-2"></g>
                        <path d="M17.0784667,3.66666667 L17.0388,6.894 L18.5368,10.625 L15.4081333,12.4106667 L13.5784667,15.1503333 L13.6234667,17 L12.7451333,17 C12.7451333,17 9.6618,15.6043333 9.62013333,15.4793333 C9.57846667,15.3543333 7.4118,11.6666667 7.4118,11.6666667 L5.4118,11.6666667 L4.58313333,12.493 L0.000133333333,6.33333333 L5.07846667,6.33333333 L5.07846667,0 L9.07846667,0 L9.07846667,3.66666667 L17.0784667,3.66666667 Z" id="Fill-1" fill="#96C2F8" mask="url(#mask-2)"></path>
                    </g>
                </g>
            </g>
        </g>
    </g>
</svg>