<?xml version="1.0" encoding="UTF-8"?>
<svg width="34px" height="34px" viewBox="0 0 34 34" version="1.1" xmlns="http://www.w3.org/2000/svg" xmlns:xlink="http://www.w3.org/1999/xlink">
    <!-- Generator: Sketch 41 (35326) - http://www.bohemiancoding.com/sketch -->
    <title>Group 11</title>
    <desc>Created with Sketch.</desc>
    <defs></defs>
    <g id="Page-1" stroke="none" stroke-width="1" fill="none" fill-rule="evenodd">
        <g id="create-new-990" transform="translate(-767.000000, -467.000000)">
            <g id="Group-9" transform="translate(355.000000, 114.000000)">
                <g id="Group-19" transform="translate(38.000000, 354.000000)">
                    <g id="Group-18" transform="translate(375.000000, 0.000000)">
                        <g id="Group-11">
                            <ellipse id="Oval" stroke="#FFA366" stroke-width="2" cx="16" cy="16" rx="16" ry="16"></ellipse>
                            <path d="M22.2222222,8.7 L21.3333333,8.7 L21.3333333,7.85 C21.3333333,7.34 20.9777778,7 20.4444444,7 L20.4444444,7 C19.9111111,7 19.5555556,7.34 19.5555556,7.85 L19.5555556,8.7 L12.4444444,8.7 L12.4444444,7.85 C12.4444444,7.34 12.0888889,7 11.5555556,7 L11.5555556,7 C11.0222222,7 10.6666667,7.34 10.6666667,7.85 L10.6666667,8.7 L9.77777778,8.7 C8.8,8.7 8,9.465 8,10.4 L8,22.3 C8,23.235 8.8,24 9.77777778,24 L22.2222222,24 C23.2,24 24,23.235 24,22.3 L24,10.4 C24,9.465 23.2,8.7 22.2222222,8.7 L22.2222222,8.7 L22.2222222,8.7 Z M22.2222222,22.3 L9.77777778,22.3 L9.77777778,12.95 L22.2222222,12.95 L22.2222222,22.3 L22.2222222,22.3 L22.2222222,22.3 Z" id="Shape-Copy" fill="#FFA366"></path>
                        </g>
                    </g>
                </g>
            </g>
        </g>
    </g>
</svg>