<?xml version="1.0" encoding="UTF-8"?>
<svg width="11px" height="14px" viewBox="0 0 11 14" version="1.1" xmlns="http://www.w3.org/2000/svg" xmlns:xlink="http://www.w3.org/1999/xlink">
    <!-- Generator: Sketch 41 (35326) - http://www.bohemiancoding.com/sketch -->
    <title>Shape</title>
    <desc>Created with Sketch.</desc>
    <defs></defs>
    <g id="Page-1" stroke="none" stroke-width="1" fill="none" fill-rule="evenodd">
        <g id="checkout" transform="translate(-594.000000, -447.000000)" fill="#46505B">
            <path d="M595.1077,460.462077 C594.5005,460.462077 594.0088,459.979615 594.0088,459.384615 L594.0088,453.996769 C594.0088,453.401769 594.50105,452.918769 595.1077,452.918769 L595.65715,452.918769 L595.65715,451.302846 C595.65715,449.220077 597.37975,447.531462 599.5044,447.531462 C601.62905,447.531462 603.35165,449.220077 603.35165,451.302846 L603.35165,452.918769 L603.9011,452.918769 C604.5083,452.918769 605,453.401231 605,453.996769 L605,459.384615 C605,459.979077 604.50775,460.462077 603.9011,460.462077 L595.1077,460.462077 Z M601.70275,451.302846 C601.70275,450.112846 600.71825,449.147923 599.5044,449.147923 C598.29055,449.147923 597.30605,450.112846 597.30605,451.302846 L597.30605,452.918769 L601.70275,452.918769 L601.70275,451.302846 L601.70275,451.302846 Z" id="Shape"></path>
        </g>
    </g>
</svg>