<?xml version="1.0" encoding="utf-8"?>
<!-- Generator: Adobe Illustrator 19.2.0, SVG Export Plug-In . SVG Version: 6.00 Build 0)  -->
<svg version="1.1" id="Layer_1" xmlns="http://www.w3.org/2000/svg" xmlns:xlink="http://www.w3.org/1999/xlink" x="0px" y="0px"
	 viewBox="0 0 130.3 34.8" style="enable-background:new 0 0 130.3 34.8;" xml:space="preserve">
<style type="text/css">
	.st0{fill:#1F5385;}
	.st1{opacity:0.15;}
	.st2{fill:#101B2B;}
	.st3{fill:#F2F266;}
	.st4{opacity:0.65;}
	.st5{fill:#E2D452;}
	.st6{fill:#45DD94;}
	.st7{fill:#34C68A;}
	.st8{fill:#2EAFFF;}
</style>
<g>
	<path class="st0" d="M40.6,25.2V9.7h10.2v2.8H44v3.8h4.8V19H44v6.2H40.6z"/>
	<path class="st0" d="M53,25.2V9.7h3.4v15.5H53z"/>
	<path class="st0" d="M59.7,25.2V9.7h3.4v12.7h6.8v2.8H59.7z"/>
	<path class="st0" d="M72,25.2V9.7h10.5v2.8h-7.1v3.3h5.2v2.7h-5.2v3.8h7.5v2.8H72z"/>
	<path class="st0" d="M90.7,24.1l1.5-2.2c0.9,0.6,1.7,1,3,1c2,0,3.4-1.7,3.6-4.6c-1.1,0.8-2.3,1.4-3.9,1.4c-2.7,0-5-1.5-5-4.9
		c0-3.2,2.4-5.4,5.9-5.4c3.7,0,6.3,2.7,6.3,7.8c0,5.9-3.5,8.3-6.8,8.3C92.9,25.5,91.6,24.8,90.7,24.1z M98.7,15.9
		c-0.1-2.6-1.3-3.8-3.1-3.8c-1.7,0-2.5,1.1-2.5,2.6c0,1.3,0.5,2.6,2.5,2.6C96.9,17.2,97.9,16.6,98.7,15.9z"/>
	<path class="st0" d="M104.3,24.1l1.5-2.2c0.9,0.6,1.7,1,3,1c2,0,3.4-1.7,3.6-4.6c-1.1,0.8-2.3,1.4-3.9,1.4c-2.7,0-5-1.5-5-4.9
		c0-3.2,2.4-5.4,5.9-5.4c3.7,0,6.3,2.7,6.3,7.8c0,5.9-3.5,8.3-6.8,8.3C106.5,25.5,105.3,24.8,104.3,24.1z M112.4,15.9
		c-0.1-2.6-1.3-3.8-3.1-3.8c-1.7,0-2.5,1.1-2.5,2.6c0,1.3,0.5,2.6,2.5,2.6C110.5,17.2,111.6,16.6,112.4,15.9z"/>
	<path class="st0" d="M117.4,17.4c0-4.8,2.4-8,6.4-8c4.1,0,6.4,3.2,6.4,8c0,4.8-2.3,8-6.4,8C119.8,25.5,117.4,22.3,117.4,17.4z
		 M126.9,17.4c0-3.5-1.1-5.3-3.1-5.3c-2,0-3.1,1.8-3.1,5.3c0,3.5,1.1,5.4,3.1,5.4C125.8,22.8,126.9,21,126.9,17.4z"/>
</g>
<g>
	<g class="st1">
		<path class="st2" d="M13.3,34.7l13.8-8c0.9-0.5,0.8-1.8-0.2-2.1l-11.5-4.4c-0.3-0.1-0.7-0.1-1,0.1l-13.8,8
			c-0.9,0.5-0.8,1.8,0.2,2.1l11.5,4.4C12.6,34.9,13,34.9,13.3,34.7z"/>
	</g>
	<g>
		<path class="st3" d="M13.3,28.8l13.8-8c0.9-0.5,0.8-1.8-0.2-2.1l-11.5-4.4c-0.3-0.1-0.7-0.1-1,0.1l-13.8,8
			c-0.9,0.5-0.8,1.8,0.2,2.1l11.5,4.4C12.6,29,13,28.9,13.3,28.8z"/>
	</g>
	<g class="st4">
		<path class="st5" d="M13.3,25.8l12.9-7.5l-10.8-4.1c-0.3-0.1-0.7-0.1-1,0.1L1.5,21.8l10.8,4.1C12.6,26,13,26,13.3,25.8z"/>
	</g>
	<g>
		<path class="st6" d="M13.3,21.7l13.8-8c0.9-0.5,0.8-1.8-0.2-2.1L15.5,7.1c-0.3-0.1-0.7-0.1-1,0.1l-13.8,8
			c-0.9,0.5-0.8,1.8,0.2,2.1l11.5,4.4C12.6,21.9,13,21.9,13.3,21.7z"/>
	</g>
	<g class="st4">
		<path class="st7" d="M13.3,18.8l12.9-7.5L15.5,7.1c-0.3-0.1-0.7-0.1-1,0.1L1.5,14.7l10.8,4.1C12.6,19,13,18.9,13.3,18.8z"/>
	</g>
	<g>
		<path class="st8" d="M13.3,14.6l13.8-8C28,6.1,27.9,4.9,27,4.5L15.5,0.1c-0.3-0.1-0.7-0.1-1,0.1l-13.8,8c-0.9,0.5-0.8,1.8,0.2,2.1
			l11.5,4.4C12.6,14.8,13,14.8,13.3,14.6z"/>
	</g>
</g>
</svg>
