<?xml version="1.0" encoding="UTF-8"?>
<svg width="73px" height="19px" viewBox="0 0 73 19" version="1.1" xmlns="http://www.w3.org/2000/svg" xmlns:xlink="http://www.w3.org/1999/xlink">
    <!-- Generator: Sketch 41 (35326) - http://www.bohemiancoding.com/sketch -->
    <title>Page 1</title>
    <desc>Created with Sketch.</desc>
    <defs>
        <linearGradient x1="1.72631789%" y1="50%" x2="98.2083068%" y2="50%" id="linearGradient-1">
            <stop stop-color="#69DDD9" offset="0%"></stop>
            <stop stop-color="#12B6CB" offset="100%"></stop>
        </linearGradient>
        <linearGradient x1="0%" y1="0%" x2="100%" y2="100%" id="linearGradient-2">
            <stop stop-color="#FFFFFF" offset="0%"></stop>
            <stop stop-color="#FBFCFD" offset="22.0676181%"></stop>
            <stop stop-color="#E9EFF4" offset="100%"></stop>
        </linearGradient>
        <rect id="path-3" x="0" y="0" width="86" height="86" rx="4"></rect>
        <filter x="-50%" y="-50%" width="200%" height="200%" filterUnits="objectBoundingBox" id="filter-4">
            <feOffset dx="0" dy="2" in="SourceAlpha" result="shadowOffsetOuter1"></feOffset>
            <feGaussianBlur stdDeviation="2" in="shadowOffsetOuter1" result="shadowBlurOuter1"></feGaussianBlur>
            <feColorMatrix values="0 0 0 0 0   0 0 0 0 0   0 0 0 0 0  0 0 0 0.1 0" type="matrix" in="shadowBlurOuter1"></feColorMatrix>
        </filter>
        <polygon id="path-5" points="72.7661593 9.50348582 72.7661593 18.7588652 0 18.7588652 0 9.50348582 0 0.248106383 72.7661593 0.248106383"></polygon>
    </defs>
    <g id="Page-1" stroke="none" stroke-width="1" fill="none" fill-rule="evenodd">
        <g id="homepage" transform="translate(-360.000000, -519.000000)">
            <g id="Group-2" transform="translate(-6.000000, 68.000000)">
                <rect id="Rectangle" fill="url(#linearGradient-1)" x="2.38202247" y="0" width="1905.61798" height="1283"></rect>
                <rect id="Rectangle" fill-opacity="0.15" fill="#3A9BA3" x="0" y="0" width="1905.61798" height="1283"></rect>
            </g>
            <g id="Group-5" transform="translate(353.000000, 485.000000)">
                <g id="Rectangle-15">
                    <use fill="black" fill-opacity="1" filter="url(#filter-4)" xlink:href="#path-3"></use>
                    <use fill="url(#linearGradient-2)" fill-rule="evenodd" xlink:href="#path-3"></use>
                </g>
                <g id="Page-1" transform="translate(7.000000, 34.000000)">
                    <g id="Group-3" transform="translate(0.000000, 0.159858)">
                        <mask id="mask-6" fill="white">
                            <use xlink:href="#path-5"></use>
                        </mask>
                        <g id="Clip-2"></g>
                        <path d="M0,9.50356738 C0,4.39136879 16.2886264,0.248106383 36.3828791,0.248106383 C56.4771319,0.248106383 72.7661593,4.39136879 72.7661593,9.50356738 C72.7661593,14.6153582 56.4771319,18.7590284 36.3828791,18.7590284 C16.2886264,18.7590284 0,14.6153582 0,9.50356738" id="Fill-1" fill="#0083CA" mask="url(#mask-6)"></path>
                    </g>
                    <path d="M59.6344621,8.12960284 C60.1458632,8.12960284 60.295072,8.4358617 60.2365115,8.81715603 C60.2088357,8.99658865 60.1201929,9.35993972 60.0183137,9.71228014 L58.4367808,9.71228014 C58.5298357,9.36320213 58.64455,8.98965603 58.7239676,8.77841489 C58.8671599,8.39752837 59.1222588,8.12960284 59.6344621,8.12960284 M58.0088082,11.5204716 C58.0212423,11.4625638 58.0364841,11.3940532 58.0529291,11.3186099 L62.9695995,11.3186099 C63.5307368,9.06428369 63.779017,8.02357447 62.8416489,7.12926596 C62.2195445,6.53591489 61.1626489,6.29979787 59.9814126,6.29979787 C58.3894511,6.29979787 57.3923192,6.53346809 56.5857093,7.10928369 C55.6912588,7.74708511 55.1830665,8.74905319 54.7923962,10.2615887 C54.2501104,12.3621738 54.2448962,13.4750638 54.9436104,14.2902589 C55.4249291,14.8518014 56.3225885,15.2750993 57.8507753,15.2799929 C59.6456929,15.2861099 60.5429511,15.0043191 61.175083,14.5704184 C62.023006,13.988078 62.4634126,13.339266 62.7714566,12.074266 L59.4631929,12.074266 C59.3849786,12.3919433 59.3204016,12.8829362 59.1218577,13.1353652 C58.9778632,13.3172447 58.7596654,13.4673156 58.3577643,13.4505957 C58.0942423,13.4399929 57.8952973,13.3482376 57.8058522,13.1765532 C57.7123962,12.996305 57.7384676,12.7499929 57.7689511,12.5885035 C57.8539841,12.1350284 57.9193632,11.9339823 58.0088082,11.5204716" id="Fill-4" fill="#FEFEFE"></path>
                    <path d="M18.2177516,6.19968262 C18.8759549,6.19968262 19.0696857,6.59321099 18.9970868,7.0850195 C18.9654,7.29911525 18.8655264,7.75870745 18.7520154,8.16446986 L16.6987901,8.16446986 C16.819922,7.71466489 16.9390484,7.30645567 17.0425319,7.03445213 C17.2258341,6.54509043 17.5595484,6.19968262 18.2177516,6.19968262 M16.122411,10.560711 C16.1380538,10.4860833 16.1577077,10.3988138 16.1789659,10.3013493 L22.5075044,10.3013493 C23.2282791,7.40228901 23.5471527,6.06388475 22.3422516,4.91388475 C21.5428615,4.1504805 20.1827352,3.84748404 18.6637736,3.84748404 C15.9246692,3.84748404 13.0957187,4.52280319 12.2742681,7.87370745 C12.1523341,8.36877837 11.7331857,9.83767908 11.6501582,10.2234592 C11.3501363,11.6222181 11.2253945,12.8998599 11.8057846,13.7884592 C12.5309714,14.8980869 13.8923011,15.3593103 15.9246692,15.3960124 C18.2309879,15.438016 19.3861527,15.0412252 20.1995813,14.482945 C21.289367,13.7346294 21.8553176,12.8998599 22.2516033,11.2731401 L18.0023615,11.2731401 C17.9016857,11.6817571 17.8186582,12.3134415 17.5643615,12.636828 C17.3790538,12.8721294 17.0926692,13.0646117 16.5760538,13.0429982 C16.2371253,13.029133 16.004889,12.9255514 15.8701198,12.7020762 C15.7437736,12.4920585 15.7702462,12.1690798 15.8087516,11.9619167 C15.9182516,11.377945 16.0064934,11.092484 16.122411,10.560711" id="Fill-6" fill="#FEFEFE"></path>
                    <polygon id="Fill-8" fill="#FEFEFE" points="51.6739725 3.78170567 55.2136703 3.78170567 52.4577198 15.0504823 48.9031813 15.0504823"></polygon>
                    <polygon id="Fill-10" fill="#FEFEFE" points="49.4334341 6.56719326 47.3469176 15.0502784 43.7923791 15.0502784 45.8780934 6.56719326"></polygon>
                    <path d="M45.3948896,3.78170567 L44.9528786,5.59560638 L44.305906,5.59560638 C43.8382247,5.59560638 43.5883401,5.7456773 43.4968896,6.1171844 C43.4182742,6.4356773 43.3861863,6.56698936 43.3861863,6.56698936 L44.7162302,6.56698936 L44.2292962,8.54808865 L42.8936368,8.54808865 L41.3000709,15.0504823 L37.7451313,15.0504823 L39.3427082,8.54808865 L38.2188291,8.54808865 L38.7053621,6.56698936 L39.8308456,6.56698936 C39.8308456,6.56698936 39.9427522,6.11473759 40.0486423,5.68165248 C40.3085544,4.62789362 40.9366753,3.78170567 42.7552577,3.78170567 L45.3948896,3.78170567 Z" id="Fill-12" fill="#FEFEFE"></path>
                    <path d="M11.9130786,6.02987411 C13.0634302,6.02987411 13.5519687,6.40342021 13.346606,7.32505142 L12.0462434,7.32505142 C12.0867544,7.16152305 12.0987874,7.04611525 12.052661,6.97107979 C12.0061335,6.89482092 11.8954302,6.8589344 11.7550456,6.85526418 C11.5841775,6.85077837 11.4137104,6.92051241 11.3675841,7.12685993 C11.302606,7.41925355 11.3968643,7.5203883 12.0089412,7.80014007 C12.693617,8.11170035 13.1440511,8.45099113 12.9306665,9.30696631 C12.7092599,10.1939344 12.0037269,10.5144663 10.9945621,10.5144663 C10.4807544,10.5144663 9.96815,10.4353528 9.70783681,10.1935266 C9.44591923,9.95170035 9.36369396,9.65033511 9.50167198,9.08797695 L10.823694,9.08797695 C10.823694,9.08797695 10.8060456,9.15771099 10.7944137,9.20420035 C10.7013588,9.58508688 10.8750346,9.69274645 11.1301335,9.68866844 C11.4217324,9.68418262 11.5135841,9.50964362 11.5404577,9.35427128 C11.5905951,9.06391667 11.456628,8.93668262 10.6075016,8.49054787 C10.0202929,8.1818422 9.88071044,7.7495727 10.0395456,7.1199273 C10.2392929,6.32512234 11.0110071,6.02987411 11.9130786,6.02987411" id="Fill-14" fill="#0071BB"></path>
                    <polygon id="Fill-16" fill="#FFF100" points="3.48097692 5.70632447 4.92132308 5.70632447 3.8539989 10.0453316 2.41485604 10.0453316"></polygon>
                    <path d="M6.77977473,7.54118617 L6.99275824,7.54118617 C7.38062088,7.54118617 7.53624725,7.35604433 7.61406044,7.03918262 C7.68304945,6.75698404 7.52341209,6.59671809 7.35414835,6.59671809 L7.008,6.59671809 L6.77977473,7.54118617 Z M5.78705495,5.70648759 L7.61406044,5.70648759 C8.1764011,5.70648759 8.60357143,5.74115071 8.88795055,6.0559734 C9.06804396,6.2557961 9.14385165,6.5135266 9.04317582,6.93560106 C8.89757692,7.54648759 8.55383516,7.76629255 8.08414835,7.87558333 L8.08093956,7.89638121 C8.49006044,8.00404078 8.66694505,8.29317199 8.57429121,8.73278191 C8.49728022,9.09939539 8.45315934,9.27230319 8.41465385,9.50801241 C8.38376923,9.70416489 8.39820879,9.8799273 8.47963187,10.0454947 L6.96107143,10.0454947 C6.92617582,9.75228546 7.03246703,9.32123936 7.15801099,8.78253369 C7.23782967,8.43712589 7.10466484,8.35638121 6.91855495,8.35638121 L6.57962637,8.35638121 L6.16007692,10.0454947 L4.72013187,10.0454947 L5.78705495,5.70648759 Z" id="Fill-18" fill="#FFF100"></path>
                    <path d="M11.5771181,5.6508227 C12.7274698,5.6508227 13.2156071,6.02436879 13.0098434,6.946 L11.7094808,6.946 C11.7511951,6.78247163 11.7628269,6.66706383 11.7162995,6.59202837 C11.669772,6.5157695 11.5594698,6.47988298 11.4186841,6.47621277 C11.248217,6.47172695 11.0781511,6.54146099 11.0316236,6.74780851 C10.9658434,7.04101773 11.0601016,7.14174468 11.6725797,7.42108865 C12.3576566,7.73346454 12.8084918,8.07234752 12.5943049,8.92791489 C12.3728984,9.81529078 11.6673654,10.1354149 10.6586016,10.1354149 C10.1439918,10.1354149 9.63218956,10.0563014 9.37107418,9.81488298 C9.11035989,9.57346454 9.02733242,9.27128369 9.16531044,8.70933333 L10.4869313,8.70933333 C10.4869313,8.70933333 10.4696841,8.77906738 10.4584533,8.82596454 C10.3645962,9.20644326 10.5386731,9.31369504 10.793772,9.31002482 C11.0861731,9.30513121 11.1776236,9.1305922 11.2044973,8.97521986 C11.2546346,8.68527305 11.1202665,8.55803901 10.2711401,8.11190426 C9.68433242,7.80319858 9.5443489,7.37133688 9.70358516,6.74128369 C9.90333242,5.94647872 10.6750467,5.6508227 11.5771181,5.6508227" id="Fill-20" fill="#FFF100"></path>
                    <polygon id="Fill-22" fill="#FFF100" points="23.3563901 10.8477216 31.8348187 6.83210106 31.3109835 9.46609043 37.7803077 6.78968972 29.1165714 12.3011259 29.5990934 9.40859043"></polygon>
                    <polygon id="Fill-24" fill="#FEFEFE" points="50.0835352 3.78170567 49.5990077 5.89534043 46.0432659 5.89534043 46.5630901 3.78170567"></polygon>
                </g>
            </g>
        </g>
    </g>
</svg>